<svg id="visual" viewBox="0 0 675 900" width="675" height="900" xmlns="http://www.w3.org/2000/svg" xmlns:xlink="http://www.w3.org/1999/xlink" version="1.1"><rect x="0" y="0" width="675" height="900" fill="#001220"></rect><path d="M0 263L16 271.8C32 280.7 64 298.3 96.2 309.8C128.3 321.3 160.7 326.7 192.8 322.3C225 318 257 304 289.2 310.2C321.3 316.3 353.7 342.7 385.8 342C418 341.3 450 313.7 482.2 301.2C514.3 288.7 546.7 291.3 578.8 305.7C611 320 643 346 659 359L675 372L675 0L659 0C643 0 611 0 578.8 0C546.7 0 514.3 0 482.2 0C450 0 418 0 385.8 0C353.7 0 321.3 0 289.2 0C257 0 225 0 192.8 0C160.7 0 128.3 0 96.2 0C64 0 32 0 16 0L0 0Z" fill="#fa7268"></path><path d="M0 275L16 267.3C32 259.7 64 244.3 96.2 246.3C128.3 248.3 160.7 267.7 192.8 277.3C225 287 257 287 289.2 289.2C321.3 291.3 353.7 295.7 385.8 287.7C418 279.7 450 259.3 482.2 244.8C514.3 230.3 546.7 221.7 578.8 224.3C611 227 643 241 659 248L675 255L675 0L659 0C643 0 611 0 578.8 0C546.7 0 514.3 0 482.2 0C450 0 418 0 385.8 0C353.7 0 321.3 0 289.2 0C257 0 225 0 192.8 0C160.7 0 128.3 0 96.2 0C64 0 32 0 16 0L0 0Z" fill="#ef5f67"></path><path d="M0 167L16 167.8C32 168.7 64 170.3 96.2 166.7C128.3 163 160.7 154 192.8 149.2C225 144.3 257 143.7 289.2 155.2C321.3 166.7 353.7 190.3 385.8 200.7C418 211 450 208 482.2 204.5C514.3 201 546.7 197 578.8 191.5C611 186 643 179 659 175.5L675 172L675 0L659 0C643 0 611 0 578.8 0C546.7 0 514.3 0 482.2 0C450 0 418 0 385.8 0C353.7 0 321.3 0 289.2 0C257 0 225 0 192.8 0C160.7 0 128.3 0 96.2 0C64 0 32 0 16 0L0 0Z" fill="#e34c67"></path><path d="M0 155L16 152.5C32 150 64 145 96.2 137.2C128.3 129.3 160.7 118.7 192.8 124.3C225 130 257 152 289.2 149.8C321.3 147.7 353.7 121.3 385.8 114.7C418 108 450 121 482.2 126.5C514.3 132 546.7 130 578.8 135C611 140 643 152 659 158L675 164L675 0L659 0C643 0 611 0 578.8 0C546.7 0 514.3 0 482.2 0C450 0 418 0 385.8 0C353.7 0 321.3 0 289.2 0C257 0 225 0 192.8 0C160.7 0 128.3 0 96.2 0C64 0 32 0 16 0L0 0Z" fill="#d53867"></path><path d="M0 60L16 64.3C32 68.7 64 77.3 96.2 74.3C128.3 71.3 160.7 56.7 192.8 53.5C225 50.3 257 58.7 289.2 58.2C321.3 57.7 353.7 48.3 385.8 44C418 39.7 450 40.3 482.2 46.8C514.3 53.3 546.7 65.7 578.8 72.5C611 79.3 643 80.7 659 81.3L675 82L675 0L659 0C643 0 611 0 578.8 0C546.7 0 514.3 0 482.2 0C450 0 418 0 385.8 0C353.7 0 321.3 0 289.2 0C257 0 225 0 192.8 0C160.7 0 128.3 0 96.2 0C64 0 32 0 16 0L0 0Z" fill="#c62368"></path></svg>