<svg id="visual" viewBox="0 0 900 600" width="900" height="600" xmlns="http://www.w3.org/2000/svg" xmlns:xlink="http://www.w3.org/1999/xlink" version="1.1"><rect x="0" y="0" width="900" height="600" fill="#f4f4f4"></rect><path d="M0 306L18.8 295.8C37.7 285.7 75.3 265.3 112.8 264.8C150.3 264.3 187.7 283.7 225.2 262.8C262.7 242 300.3 181 337.8 152.3C375.3 123.7 412.7 127.3 450.2 140.7C487.7 154 525.3 177 562.8 183C600.3 189 637.7 178 675.2 177.5C712.7 177 750.3 187 787.8 186.7C825.3 186.3 862.7 175.7 881.3 170.3L900 165L900 601L881.3 601C862.7 601 825.3 601 787.8 601C750.3 601 712.7 601 675.2 601C637.7 601 600.3 601 562.8 601C525.3 601 487.7 601 450.2 601C412.7 601 375.3 601 337.8 601C300.3 601 262.7 601 225.2 601C187.7 601 150.3 601 112.8 601C75.3 601 37.7 601 18.8 601L0 601Z" fill="#fa7268"></path><path d="M0 270L18.8 283.2C37.7 296.3 75.3 322.7 112.8 312.5C150.3 302.3 187.7 255.7 225.2 256.7C262.7 257.7 300.3 306.3 337.8 311.8C375.3 317.3 412.7 279.7 450.2 252.8C487.7 226 525.3 210 562.8 208.3C600.3 206.7 637.7 219.3 675.2 219.7C712.7 220 750.3 208 787.8 220.8C825.3 233.7 862.7 271.3 881.3 290.2L900 309L900 601L881.3 601C862.7 601 825.3 601 787.8 601C750.3 601 712.7 601 675.2 601C637.7 601 600.3 601 562.8 601C525.3 601 487.7 601 450.2 601C412.7 601 375.3 601 337.8 601C300.3 601 262.7 601 225.2 601C187.7 601 150.3 601 112.8 601C75.3 601 37.7 601 18.8 601L0 601Z" fill="#f36567"></path><path d="M0 292L18.8 292.3C37.7 292.7 75.3 293.3 112.8 308.8C150.3 324.3 187.7 354.7 225.2 359C262.7 363.3 300.3 341.7 337.8 324.5C375.3 307.3 412.7 294.7 450.2 286.2C487.7 277.7 525.3 273.3 562.8 294C600.3 314.7 637.7 360.3 675.2 375C712.7 389.7 750.3 373.3 787.8 366.7C825.3 360 862.7 363 881.3 364.5L900 366L900 601L881.3 601C862.7 601 825.3 601 787.8 601C750.3 601 712.7 601 675.2 601C637.7 601 600.3 601 562.8 601C525.3 601 487.7 601 450.2 601C412.7 601 375.3 601 337.8 601C300.3 601 262.7 601 225.2 601C187.7 601 150.3 601 112.8 601C75.3 601 37.7 601 18.8 601L0 601Z" fill="#eb5967"></path><path d="M0 405L18.8 401.5C37.7 398 75.3 391 112.8 391.8C150.3 392.7 187.7 401.3 225.2 397.7C262.7 394 300.3 378 337.8 379C375.3 380 412.7 398 450.2 412.7C487.7 427.3 525.3 438.7 562.8 442.8C600.3 447 637.7 444 675.2 425.3C712.7 406.7 750.3 372.3 787.8 356C825.3 339.7 862.7 341.3 881.3 342.2L900 343L900 601L881.3 601C862.7 601 825.3 601 787.8 601C750.3 601 712.7 601 675.2 601C637.7 601 600.3 601 562.8 601C525.3 601 487.7 601 450.2 601C412.7 601 375.3 601 337.8 601C300.3 601 262.7 601 225.2 601C187.7 601 150.3 601 112.8 601C75.3 601 37.7 601 18.8 601L0 601Z" fill="#e34c67"></path><path d="M0 390L18.8 406.7C37.7 423.3 75.3 456.7 112.8 474.2C150.3 491.7 187.7 493.3 225.2 472.7C262.7 452 300.3 409 337.8 399C375.3 389 412.7 412 450.2 428C487.7 444 525.3 453 562.8 463.7C600.3 474.3 637.7 486.7 675.2 472.7C712.7 458.7 750.3 418.3 787.8 404.8C825.3 391.3 862.7 404.7 881.3 411.3L900 418L900 601L881.3 601C862.7 601 825.3 601 787.8 601C750.3 601 712.7 601 675.2 601C637.7 601 600.3 601 562.8 601C525.3 601 487.7 601 450.2 601C412.7 601 375.3 601 337.8 601C300.3 601 262.7 601 225.2 601C187.7 601 150.3 601 112.8 601C75.3 601 37.7 601 18.8 601L0 601Z" fill="#da3f67"></path><path d="M0 425L18.8 442C37.7 459 75.3 493 112.8 513.7C150.3 534.3 187.7 541.7 225.2 532.3C262.7 523 300.3 497 337.8 476.7C375.3 456.3 412.7 441.7 450.2 454.3C487.7 467 525.3 507 562.8 511.7C600.3 516.3 637.7 485.7 675.2 481.7C712.7 477.7 750.3 500.3 787.8 511.2C825.3 522 862.7 521 881.3 520.5L900 520L900 601L881.3 601C862.7 601 825.3 601 787.8 601C750.3 601 712.7 601 675.2 601C637.7 601 600.3 601 562.8 601C525.3 601 487.7 601 450.2 601C412.7 601 375.3 601 337.8 601C300.3 601 262.7 601 225.2 601C187.7 601 150.3 601 112.8 601C75.3 601 37.7 601 18.8 601L0 601Z" fill="#d03267"></path><path d="M0 543L18.8 538.2C37.7 533.3 75.3 523.7 112.8 529.2C150.3 534.7 187.7 555.3 225.2 559.3C262.7 563.3 300.3 550.7 337.8 538.8C375.3 527 412.7 516 450.2 514.5C487.7 513 525.3 521 562.8 519.2C600.3 517.3 637.7 505.7 675.2 507C712.7 508.3 750.3 522.7 787.8 533.8C825.3 545 862.7 553 881.3 557L900 561L900 601L881.3 601C862.7 601 825.3 601 787.8 601C750.3 601 712.7 601 675.2 601C637.7 601 600.3 601 562.8 601C525.3 601 487.7 601 450.2 601C412.7 601 375.3 601 337.8 601C300.3 601 262.7 601 225.2 601C187.7 601 150.3 601 112.8 601C75.3 601 37.7 601 18.8 601L0 601Z" fill="#c62368"></path></svg>