<svg id="visual" viewBox="0 0 900 600" width="900" height="600" xmlns="http://www.w3.org/2000/svg" xmlns:xlink="http://www.w3.org/1999/xlink" version="1.1"><rect x="0" y="0" width="900" height="600" fill="#f4f4f4"></rect><path d="M0 375L21.5 373C43 371 86 367 128.8 367.3C171.7 367.7 214.3 372.3 257.2 375.7C300 379 343 381 385.8 389C428.7 397 471.3 411 514.2 407.2C557 403.3 600 381.7 642.8 385.7C685.7 389.7 728.3 419.3 771.2 429.5C814 439.7 857 430.3 878.5 425.7L900 421L900 601L878.5 601C857 601 814 601 771.2 601C728.3 601 685.7 601 642.8 601C600 601 557 601 514.2 601C471.3 601 428.7 601 385.8 601C343 601 300 601 257.2 601C214.3 601 171.7 601 128.8 601C86 601 43 601 21.5 601L0 601Z" fill="#fa7268"></path><path d="M0 473L21.5 470.8C43 468.7 86 464.3 128.8 462.5C171.7 460.7 214.3 461.3 257.2 463C300 464.7 343 467.3 385.8 466.2C428.7 465 471.3 460 514.2 448C557 436 600 417 642.8 411.2C685.7 405.3 728.3 412.7 771.2 415.3C814 418 857 416 878.5 415L900 414L900 601L878.5 601C857 601 814 601 771.2 601C728.3 601 685.7 601 642.8 601C600 601 557 601 514.2 601C471.3 601 428.7 601 385.8 601C343 601 300 601 257.2 601C214.3 601 171.7 601 128.8 601C86 601 43 601 21.5 601L0 601Z" fill="#ef5f67"></path><path d="M0 470L21.5 470.8C43 471.7 86 473.3 128.8 472C171.7 470.7 214.3 466.3 257.2 461.7C300 457 343 452 385.8 454.2C428.7 456.3 471.3 465.7 514.2 470.3C557 475 600 475 642.8 475.5C685.7 476 728.3 477 771.2 472.8C814 468.7 857 459.3 878.5 454.7L900 450L900 601L878.5 601C857 601 814 601 771.2 601C728.3 601 685.7 601 642.8 601C600 601 557 601 514.2 601C471.3 601 428.7 601 385.8 601C343 601 300 601 257.2 601C214.3 601 171.7 601 128.8 601C86 601 43 601 21.5 601L0 601Z" fill="#e34c67"></path><path d="M0 538L21.5 532.7C43 527.3 86 516.7 128.8 512.8C171.7 509 214.3 512 257.2 510.8C300 509.7 343 504.3 385.8 505.8C428.7 507.3 471.3 515.7 514.2 518C557 520.3 600 516.7 642.8 516.3C685.7 516 728.3 519 771.2 519.2C814 519.3 857 516.7 878.5 515.3L900 514L900 601L878.5 601C857 601 814 601 771.2 601C728.3 601 685.7 601 642.8 601C600 601 557 601 514.2 601C471.3 601 428.7 601 385.8 601C343 601 300 601 257.2 601C214.3 601 171.7 601 128.8 601C86 601 43 601 21.5 601L0 601Z" fill="#d53867"></path><path d="M0 567L21.5 561.5C43 556 86 545 128.8 541C171.7 537 214.3 540 257.2 543.8C300 547.7 343 552.3 385.8 554C428.7 555.7 471.3 554.3 514.2 549.3C557 544.3 600 535.7 642.8 534.8C685.7 534 728.3 541 771.2 548C814 555 857 562 878.5 565.5L900 569L900 601L878.5 601C857 601 814 601 771.2 601C728.3 601 685.7 601 642.8 601C600 601 557 601 514.2 601C471.3 601 428.7 601 385.8 601C343 601 300 601 257.2 601C214.3 601 171.7 601 128.8 601C86 601 43 601 21.5 601L0 601Z" fill="#c62368"></path></svg>