<svg id="visual" viewBox="0 0 900 600" width="900" height="600" xmlns="http://www.w3.org/2000/svg" xmlns:xlink="http://www.w3.org/1999/xlink" version="1.1"><path d="M0 85L13.7 78C27.3 71 54.7 57 82 50C109.3 43 136.7 43 163.8 47C191 51 218 59 245.2 60C272.3 61 299.7 55 327 57C354.3 59 381.7 69 409 74C436.3 79 463.7 79 491 76C518.3 73 545.7 67 573 60C600.3 53 627.7 45 654.8 47C682 49 709 61 736.2 65C763.3 69 790.7 65 818 63C845.3 61 872.7 61 886.3 61L900 61L900 0L886.3 0C872.7 0 845.3 0 818 0C790.7 0 763.3 0 736.2 0C709 0 682 0 654.8 0C627.7 0 600.3 0 573 0C545.7 0 518.3 0 491 0C463.7 0 436.3 0 409 0C381.7 0 354.3 0 327 0C299.7 0 272.3 0 245.2 0C218 0 191 0 163.8 0C136.7 0 109.3 0 82 0C54.7 0 27.3 0 13.7 0L0 0Z" fill="#5c5c5c"></path><path d="M0 181L13.7 171C27.3 161 54.7 141 82 127C109.3 113 136.7 105 163.8 115C191 125 218 153 245.2 157C272.3 161 299.7 141 327 144C354.3 147 381.7 173 409 184C436.3 195 463.7 191 491 184C518.3 177 545.7 167 573 150C600.3 133 627.7 109 654.8 111C682 113 709 141 736.2 153C763.3 165 790.7 161 818 155C845.3 149 872.7 141 886.3 137L900 133L900 59L886.3 59C872.7 59 845.3 59 818 61C790.7 63 763.3 67 736.2 63C709 59 682 47 654.8 45C627.7 43 600.3 51 573 58C545.7 65 518.3 71 491 74C463.7 77 436.3 77 409 72C381.7 67 354.3 57 327 55C299.7 53 272.3 59 245.2 58C218 57 191 49 163.8 45C136.7 41 109.3 41 82 48C54.7 55 27.3 69 13.7 76L0 83Z" fill="#6d6d6d"></path><path d="M0 343L13.7 328C27.3 313 54.7 283 82 264C109.3 245 136.7 237 163.8 262C191 287 218 345 245.2 359C272.3 373 299.7 343 327 347C354.3 351 381.7 389 409 387C436.3 385 463.7 343 491 336C518.3 329 545.7 357 573 362C600.3 367 627.7 349 654.8 335C682 321 709 311 736.2 304C763.3 297 790.7 293 818 304C845.3 315 872.7 341 886.3 354L900 367L900 131L886.3 135C872.7 139 845.3 147 818 153C790.7 159 763.3 163 736.2 151C709 139 682 111 654.8 109C627.7 107 600.3 131 573 148C545.7 165 518.3 175 491 182C463.7 189 436.3 193 409 182C381.7 171 354.3 145 327 142C299.7 139 272.3 159 245.2 155C218 151 191 123 163.8 113C136.7 103 109.3 111 82 125C54.7 139 27.3 159 13.7 169L0 179Z" fill="#7e7e7e"></path><path d="M0 541L13.7 539C27.3 537 54.7 533 82 526C109.3 519 136.7 509 163.8 513C191 517 218 535 245.2 527C272.3 519 299.7 485 327 476C354.3 467 381.7 483 409 497C436.3 511 463.7 523 491 528C518.3 533 545.7 531 573 514C600.3 497 627.7 465 654.8 462C682 459 709 485 736.2 500C763.3 515 790.7 519 818 514C845.3 509 872.7 495 886.3 488L900 481L900 365L886.3 352C872.7 339 845.3 313 818 302C790.7 291 763.3 295 736.2 302C709 309 682 319 654.8 333C627.7 347 600.3 365 573 360C545.7 355 518.3 327 491 334C463.7 341 436.3 383 409 385C381.7 387 354.3 349 327 345C299.7 341 272.3 371 245.2 357C218 343 191 285 163.8 260C136.7 235 109.3 243 82 262C54.7 281 27.3 311 13.7 326L0 341Z" fill="#909090"></path><path d="M0 601L13.7 601C27.3 601 54.7 601 82 601C109.3 601 136.7 601 163.8 601C191 601 218 601 245.2 601C272.3 601 299.7 601 327 601C354.3 601 381.7 601 409 601C436.3 601 463.7 601 491 601C518.3 601 545.7 601 573 601C600.3 601 627.7 601 654.8 601C682 601 709 601 736.2 601C763.3 601 790.7 601 818 601C845.3 601 872.7 601 886.3 601L900 601L900 479L886.3 486C872.7 493 845.3 507 818 512C790.7 517 763.3 513 736.2 498C709 483 682 457 654.8 460C627.7 463 600.3 495 573 512C545.7 529 518.3 531 491 526C463.7 521 436.3 509 409 495C381.7 481 354.3 465 327 474C299.7 483 272.3 517 245.2 525C218 533 191 515 163.8 511C136.7 507 109.3 517 82 524C54.7 531 27.3 535 13.7 537L0 539Z" fill="#a3a3a3"></path></svg>