<svg id="visual" viewBox="0 0 675 900" width="675" height="900" xmlns="http://www.w3.org/2000/svg" xmlns:xlink="http://www.w3.org/1999/xlink" version="1.1"><rect x="0" y="0" width="675" height="900" fill="#e8e8e8"></rect><path d="M0 558L12.5 554.3C25 550.7 50 543.3 75 535.5C100 527.7 125 519.3 150 525.5C175 531.7 200 552.3 225 552.3C250 552.3 275 531.7 300 533.8C325 536 350 561 375 561.7C400 562.3 425 538.7 450 536C475 533.3 500 551.7 525 561.7C550 571.7 575 573.3 600 578.2C625 583 650 591 662.5 595L675 599L675 901L662.5 901C650 901 625 901 600 901C575 901 550 901 525 901C500 901 475 901 450 901C425 901 400 901 375 901C350 901 325 901 300 901C275 901 250 901 225 901C200 901 175 901 150 901C125 901 100 901 75 901C50 901 25 901 12.5 901L0 901Z" fill="#fa7268"></path><path d="M0 609L12.5 614.8C25 620.7 50 632.3 75 630.3C100 628.3 125 612.7 150 604C175 595.3 200 593.7 225 602C250 610.3 275 628.7 300 636.3C325 644 350 641 375 639.8C400 638.7 425 639.3 450 639.8C475 640.3 500 640.7 525 634C550 627.3 575 613.7 600 602.7C625 591.7 650 583.3 662.5 579.2L675 575L675 901L662.5 901C650 901 625 901 600 901C575 901 550 901 525 901C500 901 475 901 450 901C425 901 400 901 375 901C350 901 325 901 300 901C275 901 250 901 225 901C200 901 175 901 150 901C125 901 100 901 75 901C50 901 25 901 12.5 901L0 901Z" fill="#fe78a3"></path><path d="M0 647L12.5 653.8C25 660.7 50 674.3 75 674.2C100 674 125 660 150 651.8C175 643.7 200 641.3 225 649.7C250 658 275 677 300 673.3C325 669.7 350 643.3 375 641.2C400 639 425 661 450 665.7C475 670.3 500 657.7 525 647.5C550 637.3 575 629.7 600 637.5C625 645.3 650 668.7 662.5 680.3L675 692L675 901L662.5 901C650 901 625 901 600 901C575 901 550 901 525 901C500 901 475 901 450 901C425 901 400 901 375 901C350 901 325 901 300 901C275 901 250 901 225 901C200 901 175 901 150 901C125 901 100 901 75 901C50 901 25 901 12.5 901L0 901Z" fill="#e88dd6"></path><path d="M0 712L12.5 705.2C25 698.3 50 684.7 75 680.2C100 675.7 125 680.3 150 688.5C175 696.7 200 708.3 225 706.5C250 704.7 275 689.3 300 680.5C325 671.7 350 669.3 375 678.2C400 687 425 707 450 717.7C475 728.3 500 729.7 525 730C550 730.3 575 729.7 600 720.2C625 710.7 650 692.3 662.5 683.2L675 674L675 901L662.5 901C650 901 625 901 600 901C575 901 550 901 525 901C500 901 475 901 450 901C425 901 400 901 375 901C350 901 325 901 300 901C275 901 250 901 225 901C200 901 175 901 150 901C125 901 100 901 75 901C50 901 25 901 12.5 901L0 901Z" fill="#bfa7f9"></path><path d="M0 722L12.5 728.8C25 735.7 50 749.3 75 757.8C100 766.3 125 769.7 150 766.7C175 763.7 200 754.3 225 755C250 755.7 275 766.3 300 763.3C325 760.3 350 743.7 375 740.8C400 738 425 749 450 747.2C475 745.3 500 730.7 525 728C550 725.3 575 734.7 600 744.7C625 754.7 650 765.3 662.5 770.7L675 776L675 901L662.5 901C650 901 625 901 600 901C575 901 550 901 525 901C500 901 475 901 450 901C425 901 400 901 375 901C350 901 325 901 300 901C275 901 250 901 225 901C200 901 175 901 150 901C125 901 100 901 75 901C50 901 25 901 12.5 901L0 901Z" fill="#8fbeff"></path><path d="M0 777L12.5 782.3C25 787.7 50 798.3 75 800.3C100 802.3 125 795.7 150 788.3C175 781 200 773 225 777C250 781 275 797 300 804.2C325 811.3 350 809.7 375 803C400 796.3 425 784.7 450 782C475 779.3 500 785.7 525 792.2C550 798.7 575 805.3 600 806.7C625 808 650 804 662.5 802L675 800L675 901L662.5 901C650 901 625 901 600 901C575 901 550 901 525 901C500 901 475 901 450 901C425 901 400 901 375 901C350 901 325 901 300 901C275 901 250 901 225 901C200 901 175 901 150 901C125 901 100 901 75 901C50 901 25 901 12.5 901L0 901Z" fill="#6fcfff"></path><path d="M0 827L12.5 832.7C25 838.3 50 849.7 75 849.5C100 849.3 125 837.7 150 833.3C175 829 200 832 225 837.8C250 843.7 275 852.3 300 853C325 853.7 350 846.3 375 842.7C400 839 425 839 450 838.7C475 838.3 500 837.7 525 842.3C550 847 575 857 600 853.3C625 849.7 650 832.3 662.5 823.7L675 815L675 901L662.5 901C650 901 625 901 600 901C575 901 550 901 525 901C500 901 475 901 450 901C425 901 400 901 375 901C350 901 325 901 300 901C275 901 250 901 225 901C200 901 175 901 150 901C125 901 100 901 75 901C50 901 25 901 12.5 901L0 901Z" fill="#74dbee"></path></svg>